<?xml version="1.0" encoding="UTF-8"?>
<svg xmlns="http://www.w3.org/2000/svg" viewBox="0 0 800 600" data-om-id="jsx:/https:/019e1dcf-6426-7342-a0f1-a7b04a60421b.claudeusercontent.com/v1/design/projects/019e1dcf-6426-7342-a0f1-a7b04a60421b/serve/hand.jsx:6005:189:5"><g transform="translate(260 10)" data-om-id="jsx:/https:/019e1dcf-6426-7342-a0f1-a7b04a60421b.claudeusercontent.com/v1/design/projects/019e1dcf-6426-7342-a0f1-a7b04a60421b/serve/hand.jsx:5171:163:7"><g data-om-id="jsx:/https:/019e1dcf-6426-7342-a0f1-a7b04a60421b.claudeusercontent.com/v1/design/projects/019e1dcf-6426-7342-a0f1-a7b04a60421b/serve/hand.jsx:2766:79:5"><g transform="translate(80 340) rotate(-38)" data-om-id="jsx:/https:/019e1dcf-6426-7342-a0f1-a7b04a60421b.claudeusercontent.com/v1/design/projects/019e1dcf-6426-7342-a0f1-a7b04a60421b/serve/hand.jsx:2860:82:9"><rect x="-25" y="-130" width="50" height="170" rx="25" fill="#FFCC4D" stroke="#2C2418" stroke-width="5" stroke-linejoin="round" data-om-id="jsx:/https:/019e1dcf-6426-7342-a0f1-a7b04a60421b.claudeusercontent.com/v1/design/projects/019e1dcf-6426-7342-a0f1-a7b04a60421b/serve/hand.jsx:2958:83:11"/></g><rect x="76" y="142" width="38" height="180" rx="19" fill="#FFCC4D" stroke="#2C2418" stroke-width="5" stroke-linejoin="round" data-om-id="jsx:/https:/019e1dcf-6426-7342-a0f1-a7b04a60421b.claudeusercontent.com/v1/design/projects/019e1dcf-6426-7342-a0f1-a7b04a60421b/serve/hand.jsx:3362:99:9"/><rect x="118" y="110" width="40" height="212" rx="20" fill="#FFCC4D" stroke="#2C2418" stroke-width="5" stroke-linejoin="round" data-om-id="jsx:/https:/019e1dcf-6426-7342-a0f1-a7b04a60421b.claudeusercontent.com/v1/design/projects/019e1dcf-6426-7342-a0f1-a7b04a60421b/serve/hand.jsx:3362:99:9"/><rect x="161" y="142" width="38" height="180" rx="19" fill="#FFCC4D" stroke="#2C2418" stroke-width="5" stroke-linejoin="round" data-om-id="jsx:/https:/019e1dcf-6426-7342-a0f1-a7b04a60421b.claudeusercontent.com/v1/design/projects/019e1dcf-6426-7342-a0f1-a7b04a60421b/serve/hand.jsx:3362:99:9"/><rect x="204" y="182" width="32" height="140" rx="16" fill="#FFCC4D" stroke="#2C2418" stroke-width="5" stroke-linejoin="round" data-om-id="jsx:/https:/019e1dcf-6426-7342-a0f1-a7b04a60421b.claudeusercontent.com/v1/design/projects/019e1dcf-6426-7342-a0f1-a7b04a60421b/serve/hand.jsx:3362:99:9"/><path d="&#10;    M 55 328&#10;    Q 55 290 93 290&#10;     L 76 290 L 114 290 L 118 290 L 158 290 L 161 290 L 199 290 L 204 290 L 236 290&#10;    L 207 290&#10;    Q 245 290 245 328&#10;    L 245 416&#10;    C 245 440 213 446 205 458&#10;    L 205 464&#10;    Q 205 478 191 478&#10;    L 109 478&#10;    Q 95 478 95 464&#10;    L 95 458&#10;    C 87 446 55 440 55 416&#10;    Z&#10;  " fill="#FFCC4D" stroke="#2C2418" stroke-width="5" stroke-linejoin="round" stroke-linecap="round" data-om-id="jsx:/https:/019e1dcf-6426-7342-a0f1-a7b04a60421b.claudeusercontent.com/v1/design/projects/019e1dcf-6426-7342-a0f1-a7b04a60421b/serve/hand.jsx:3746:114:7"/><path d="M 70 322 Q 88 338 105 358" fill="none" stroke="#2C2418" stroke-width="3" stroke-linecap="round" opacity="0.45" data-om-id="jsx:/https:/019e1dcf-6426-7342-a0f1-a7b04a60421b.claudeusercontent.com/v1/design/projects/019e1dcf-6426-7342-a0f1-a7b04a60421b/serve/hand.jsx:4039:125:9"/></g></g></svg>
